<mxfile host="" modified="2020-05-24T15:21:41.060Z" agent="5.0 (X11; Linux x86_64) AppleWebKit/537.36 (KHTML, like Gecko) Code/1.45.0 Chrome/78.0.3904.130 Electron/7.2.4 Safari/537.36" version="13.1.3" etag="lrwgP8mNOWNbAz78NI_h" pages="2">
            <diagram id="diagramid" name="Diagram">
              <mxGraphModel><root><mxCell id="0"/><mxCell id="1" parent="0"/><mxCell id="2" value="VPC01" style="outlineConnect=0;fontColor=#B3B3B3;gradientColor=#945DF2;gradientDirection=north;fillColor=#5A30B5;strokeColor=#ffffff;dashed=0;verticalLabelPosition=bottom;verticalAlign=top;align=center;html=1;fontSize=12;fontStyle=0;aspect=fixed;shape=mxgraph.aws4.resourceIcon;resIcon=mxgraph.aws4.vpc;" vertex="1" parent="1"><mxGeometry x="750" y="462.5" width="50" height="50" as="geometry"/></mxCell><mxCell id="3" value="IGW01" style="outlineConnect=0;fontColor=#B3B3B3;gradientColor=#F78E04;gradientDirection=north;fillColor=#D05C17;strokeColor=#ffffff;dashed=0;verticalLabelPosition=bottom;verticalAlign=top;align=center;html=1;fontSize=12;fontStyle=0;aspect=fixed;shape=mxgraph.aws4.resourceIcon;resIcon=mxgraph.aws4.ec2;" vertex="1" parent="1"><mxGeometry x="250" y="50" width="50" height="50" as="geometry"/></mxCell><mxCell id="4" value="VPCGWA01" style="outlineConnect=0;fontColor=#B3B3B3;gradientColor=#F78E04;gradientDirection=north;fillColor=#D05C17;strokeColor=#ffffff;dashed=0;verticalLabelPosition=bottom;verticalAlign=top;align=center;html=1;fontSize=12;fontStyle=0;aspect=fixed;shape=mxgraph.aws4.resourceIcon;resIcon=mxgraph.aws4.ec2;" vertex="1" parent="1"><mxGeometry y="12.5" width="50" height="50" as="geometry"/></mxCell><mxCell id="5" value="NatGateway01" style="outlineConnect=0;fontColor=#B3B3B3;gradientColor=#945DF2;gradientDirection=north;fillColor=#5A30B5;strokeColor=#ffffff;dashed=0;verticalLabelPosition=bottom;verticalAlign=top;align=center;html=1;fontSize=12;fontStyle=0;aspect=fixed;shape=mxgraph.aws4.resourceIcon;resIcon=mxgraph.aws4.nat_gateway;" vertex="1" parent="1"><mxGeometry x="250" y="300" width="50" height="50" as="geometry"/></mxCell><mxCell id="6" value="NatGateway01EIP" style="outlineConnect=0;fontColor=#B3B3B3;gradientColor=#945DF2;gradientDirection=north;fillColor=#5A30B5;strokeColor=#ffffff;dashed=0;verticalLabelPosition=bottom;verticalAlign=top;align=center;html=1;fontSize=12;fontStyle=0;aspect=fixed;shape=mxgraph.aws4.resourceIcon;resIcon=mxgraph.aws4.elastic_ip_address;" vertex="1" parent="1"><mxGeometry x="500" y="325" width="50" height="50" as="geometry"/></mxCell><mxCell id="7" value="NatGateway02" style="outlineConnect=0;fontColor=#B3B3B3;gradientColor=#945DF2;gradientDirection=north;fillColor=#5A30B5;strokeColor=#ffffff;dashed=0;verticalLabelPosition=bottom;verticalAlign=top;align=center;html=1;fontSize=12;fontStyle=0;aspect=fixed;shape=mxgraph.aws4.resourceIcon;resIcon=mxgraph.aws4.nat_gateway;" vertex="1" parent="1"><mxGeometry x="250" y="650" width="50" height="50" as="geometry"/></mxCell><mxCell id="8" value="NatGateway02EIP" style="outlineConnect=0;fontColor=#B3B3B3;gradientColor=#945DF2;gradientDirection=north;fillColor=#5A30B5;strokeColor=#ffffff;dashed=0;verticalLabelPosition=bottom;verticalAlign=top;align=center;html=1;fontSize=12;fontStyle=0;aspect=fixed;shape=mxgraph.aws4.resourceIcon;resIcon=mxgraph.aws4.elastic_ip_address;" vertex="1" parent="1"><mxGeometry x="500" y="625" width="50" height="50" as="geometry"/></mxCell><mxCell id="9" value="PublicSubnet01" style="outlineConnect=0;fontColor=#B3B3B3;gradientColor=#F78E04;gradientDirection=north;fillColor=#D05C17;strokeColor=#ffffff;dashed=0;verticalLabelPosition=bottom;verticalAlign=top;align=center;html=1;fontSize=12;fontStyle=0;aspect=fixed;shape=mxgraph.aws4.resourceIcon;resIcon=mxgraph.aws4.ec2;" vertex="1" parent="1"><mxGeometry x="500" y="225" width="50" height="50" as="geometry"/></mxCell><mxCell id="10" value="PublicSubnet02" style="outlineConnect=0;fontColor=#B3B3B3;gradientColor=#F78E04;gradientDirection=north;fillColor=#D05C17;strokeColor=#ffffff;dashed=0;verticalLabelPosition=bottom;verticalAlign=top;align=center;html=1;fontSize=12;fontStyle=0;aspect=fixed;shape=mxgraph.aws4.resourceIcon;resIcon=mxgraph.aws4.ec2;" vertex="1" parent="1"><mxGeometry x="500" y="425" width="50" height="50" as="geometry"/></mxCell><mxCell id="11" value="PrivateSubnet01" style="outlineConnect=0;fontColor=#B3B3B3;gradientColor=#F78E04;gradientDirection=north;fillColor=#D05C17;strokeColor=#ffffff;dashed=0;verticalLabelPosition=bottom;verticalAlign=top;align=center;html=1;fontSize=12;fontStyle=0;aspect=fixed;shape=mxgraph.aws4.resourceIcon;resIcon=mxgraph.aws4.ec2;" vertex="1" parent="1"><mxGeometry x="250" y="550" width="50" height="50" as="geometry"/></mxCell><mxCell id="12" value="PrivateSubnet02" style="outlineConnect=0;fontColor=#B3B3B3;gradientColor=#F78E04;gradientDirection=north;fillColor=#D05C17;strokeColor=#ffffff;dashed=0;verticalLabelPosition=bottom;verticalAlign=top;align=center;html=1;fontSize=12;fontStyle=0;aspect=fixed;shape=mxgraph.aws4.resourceIcon;resIcon=mxgraph.aws4.ec2;" vertex="1" parent="1"><mxGeometry x="250" y="850" width="50" height="50" as="geometry"/></mxCell><mxCell id="13" value="PublicSubnetRouteTable" style="outlineConnect=0;fontColor=#B3B3B3;gradientColor=#945DF2;gradientDirection=north;fillColor=#5A30B5;strokeColor=#ffffff;dashed=0;verticalLabelPosition=bottom;verticalAlign=top;align=center;html=1;fontSize=12;fontStyle=0;aspect=fixed;shape=mxgraph.aws4.resourceIcon;resIcon=mxgraph.aws4.route_table;" vertex="1" parent="1"><mxGeometry x="250" y="150" width="50" height="50" as="geometry"/></mxCell><mxCell id="14" value="PublicSubnetRoute" style="outlineConnect=0;fontColor=#B3B3B3;gradientColor=#945DF2;gradientDirection=north;fillColor=#5A30B5;strokeColor=#ffffff;dashed=0;verticalLabelPosition=bottom;verticalAlign=top;align=center;html=1;fontSize=12;fontStyle=0;aspect=fixed;shape=mxgraph.aws4.resourceIcon;resIcon=mxgraph.aws4.route_table;" vertex="1" parent="1"><mxGeometry y="112.5" width="50" height="50" as="geometry"/></mxCell><mxCell id="15" value="PublicSubnet01RouteTableAssociation" style="outlineConnect=0;fontColor=#B3B3B3;gradientColor=#945DF2;gradientDirection=north;fillColor=#5A30B5;strokeColor=#ffffff;dashed=0;verticalLabelPosition=bottom;verticalAlign=top;align=center;html=1;fontSize=12;fontStyle=0;aspect=fixed;shape=mxgraph.aws4.resourceIcon;resIcon=mxgraph.aws4.route_table;" vertex="1" parent="1"><mxGeometry y="212.5" width="50" height="50" as="geometry"/></mxCell><mxCell id="16" value="PublicSubnet02RouteTableAssociation" style="outlineConnect=0;fontColor=#B3B3B3;gradientColor=#945DF2;gradientDirection=north;fillColor=#5A30B5;strokeColor=#ffffff;dashed=0;verticalLabelPosition=bottom;verticalAlign=top;align=center;html=1;fontSize=12;fontStyle=0;aspect=fixed;shape=mxgraph.aws4.resourceIcon;resIcon=mxgraph.aws4.route_table;" vertex="1" parent="1"><mxGeometry y="312.5" width="50" height="50" as="geometry"/></mxCell><mxCell id="17" value="PrivateSubnet01RouteTable" style="outlineConnect=0;fontColor=#B3B3B3;gradientColor=#945DF2;gradientDirection=north;fillColor=#5A30B5;strokeColor=#ffffff;dashed=0;verticalLabelPosition=bottom;verticalAlign=top;align=center;html=1;fontSize=12;fontStyle=0;aspect=fixed;shape=mxgraph.aws4.resourceIcon;resIcon=mxgraph.aws4.route_table;" vertex="1" parent="1"><mxGeometry x="250" y="450" width="50" height="50" as="geometry"/></mxCell><mxCell id="18" value="PrivateSubnet01Route" style="outlineConnect=0;fontColor=#B3B3B3;gradientColor=#945DF2;gradientDirection=north;fillColor=#5A30B5;strokeColor=#ffffff;dashed=0;verticalLabelPosition=bottom;verticalAlign=top;align=center;html=1;fontSize=12;fontStyle=0;aspect=fixed;shape=mxgraph.aws4.resourceIcon;resIcon=mxgraph.aws4.route_table;" vertex="1" parent="1"><mxGeometry y="412.5" width="50" height="50" as="geometry"/></mxCell><mxCell id="19" value="PrivateSubnet01RouteTableAssociation" style="outlineConnect=0;fontColor=#B3B3B3;gradientColor=#945DF2;gradientDirection=north;fillColor=#5A30B5;strokeColor=#ffffff;dashed=0;verticalLabelPosition=bottom;verticalAlign=top;align=center;html=1;fontSize=12;fontStyle=0;aspect=fixed;shape=mxgraph.aws4.resourceIcon;resIcon=mxgraph.aws4.route_table;" vertex="1" parent="1"><mxGeometry y="512.5" width="50" height="50" as="geometry"/></mxCell><mxCell id="20" value="PrivateSubnet02RouteTable" style="outlineConnect=0;fontColor=#B3B3B3;gradientColor=#945DF2;gradientDirection=north;fillColor=#5A30B5;strokeColor=#ffffff;dashed=0;verticalLabelPosition=bottom;verticalAlign=top;align=center;html=1;fontSize=12;fontStyle=0;aspect=fixed;shape=mxgraph.aws4.resourceIcon;resIcon=mxgraph.aws4.route_table;" vertex="1" parent="1"><mxGeometry x="250" y="750" width="50" height="50" as="geometry"/></mxCell><mxCell id="21" value="PrivateSubnet02Route" style="outlineConnect=0;fontColor=#B3B3B3;gradientColor=#945DF2;gradientDirection=north;fillColor=#5A30B5;strokeColor=#ffffff;dashed=0;verticalLabelPosition=bottom;verticalAlign=top;align=center;html=1;fontSize=12;fontStyle=0;aspect=fixed;shape=mxgraph.aws4.resourceIcon;resIcon=mxgraph.aws4.route_table;" vertex="1" parent="1"><mxGeometry y="675" width="50" height="50" as="geometry"/></mxCell><mxCell id="22" value="PrivateSubnet02RouteTableAssociation" style="outlineConnect=0;fontColor=#B3B3B3;gradientColor=#945DF2;gradientDirection=north;fillColor=#5A30B5;strokeColor=#ffffff;dashed=0;verticalLabelPosition=bottom;verticalAlign=top;align=center;html=1;fontSize=12;fontStyle=0;aspect=fixed;shape=mxgraph.aws4.resourceIcon;resIcon=mxgraph.aws4.route_table;" vertex="1" parent="1"><mxGeometry y="800" width="50" height="50" as="geometry"/></mxCell><mxCell id="VPC01|VPCGWA01" value="VpcId" style="edgeStyle=orthogonalEdgeStyle;rounded=1;orthogonalLoop=1;jettySize=auto;html=1;labelBackgroundColor=none;fontColor=#EA6B66;noEdgeStyle=1;orthogonal=1;" edge="1" parent="1" source="4" target="2"><mxGeometry relative="1" as="geometry"><Array as="points"><mxPoint x="62" y="27.5"/><mxPoint x="150"/><mxPoint x="400"/><mxPoint x="400"/><mxPoint x="650"/><mxPoint x="738" y="465.625"/></Array></mxGeometry></mxCell><mxCell id="IGW01|VPCGWA01" value="InternetGatewayId" style="edgeStyle=orthogonalEdgeStyle;rounded=1;orthogonalLoop=1;jettySize=auto;html=1;labelBackgroundColor=none;fontColor=#EA6B66;noEdgeStyle=1;orthogonal=1;" edge="1" parent="1" source="4" target="3"><mxGeometry relative="1" as="geometry"><Array as="points"><mxPoint x="62" y="47.5"/><mxPoint x="238" y="65"/></Array></mxGeometry></mxCell><mxCell id="PublicSubnet01|NatGateway01" value="SubnetId" style="edgeStyle=orthogonalEdgeStyle;rounded=1;orthogonalLoop=1;jettySize=auto;html=1;labelBackgroundColor=none;fontColor=#EA6B66;noEdgeStyle=1;orthogonal=1;" edge="1" parent="1" source="5" target="9"><mxGeometry relative="1" as="geometry"><Array as="points"><mxPoint x="312" y="315"/><mxPoint x="488" y="260"/></Array></mxGeometry></mxCell><mxCell id="NatGateway01EIP|NatGateway01" value="AllocationId" style="edgeStyle=orthogonalEdgeStyle;rounded=1;orthogonalLoop=1;jettySize=auto;html=1;labelBackgroundColor=none;fontColor=#EA6B66;noEdgeStyle=1;orthogonal=1;" edge="1" parent="1" source="5" target="6"><mxGeometry relative="1" as="geometry"><Array as="points"><mxPoint x="312" y="335"/><mxPoint x="488" y="350"/></Array></mxGeometry></mxCell><mxCell id="PublicSubnet02|NatGateway02" value="SubnetId" style="edgeStyle=orthogonalEdgeStyle;rounded=1;orthogonalLoop=1;jettySize=auto;html=1;labelBackgroundColor=none;fontColor=#EA6B66;noEdgeStyle=1;orthogonal=1;" edge="1" parent="1" source="7" target="10"><mxGeometry relative="1" as="geometry"><Array as="points"><mxPoint x="312" y="665"/><mxPoint x="488" y="460"/></Array></mxGeometry></mxCell><mxCell id="NatGateway02EIP|NatGateway02" value="AllocationId" style="edgeStyle=orthogonalEdgeStyle;rounded=1;orthogonalLoop=1;jettySize=auto;html=1;labelBackgroundColor=none;fontColor=#EA6B66;noEdgeStyle=1;orthogonal=1;" edge="1" parent="1" source="7" target="8"><mxGeometry relative="1" as="geometry"><Array as="points"><mxPoint x="312" y="685"/><mxPoint x="488" y="650"/></Array></mxGeometry></mxCell><mxCell id="VPC01|PublicSubnet01" value="VpcId" style="edgeStyle=orthogonalEdgeStyle;rounded=1;orthogonalLoop=1;jettySize=auto;html=1;labelBackgroundColor=none;fontColor=#EA6B66;noEdgeStyle=1;orthogonal=1;" edge="1" parent="1" source="9" target="2"><mxGeometry relative="1" as="geometry"><Array as="points"><mxPoint x="562" y="250"/><mxPoint x="734" y="478.125"/></Array></mxGeometry></mxCell><mxCell id="VPC01|PublicSubnet02" value="VpcId" style="edgeStyle=orthogonalEdgeStyle;rounded=1;orthogonalLoop=1;jettySize=auto;html=1;labelBackgroundColor=none;fontColor=#EA6B66;noEdgeStyle=1;orthogonal=1;" edge="1" parent="1" source="10" target="2"><mxGeometry relative="1" as="geometry"><Array as="points"><mxPoint x="562" y="450"/><mxPoint x="732" y="484.375"/></Array></mxGeometry></mxCell><mxCell id="VPC01|PrivateSubnet01" value="VpcId" style="edgeStyle=orthogonalEdgeStyle;rounded=1;orthogonalLoop=1;jettySize=auto;html=1;labelBackgroundColor=none;fontColor=#EA6B66;noEdgeStyle=1;orthogonal=1;" edge="1" parent="1" source="11" target="2"><mxGeometry relative="1" as="geometry"><Array as="points"><mxPoint x="312" y="575"/><mxPoint x="400" y="575"/><mxPoint x="650" y="575"/><mxPoint x="734" y="496.875"/></Array></mxGeometry></mxCell><mxCell id="VPC01|PrivateSubnet02" value="VpcId" style="edgeStyle=orthogonalEdgeStyle;rounded=1;orthogonalLoop=1;jettySize=auto;html=1;labelBackgroundColor=none;fontColor=#EA6B66;noEdgeStyle=1;orthogonal=1;" edge="1" parent="1" source="12" target="2"><mxGeometry relative="1" as="geometry"><Array as="points"><mxPoint x="312" y="875"/><mxPoint x="400" y="775"/><mxPoint x="650" y="775"/><mxPoint x="738" y="509.375"/></Array></mxGeometry></mxCell><mxCell id="VPC01|PublicSubnetRouteTable" value="VpcId" style="edgeStyle=orthogonalEdgeStyle;rounded=1;orthogonalLoop=1;jettySize=auto;html=1;labelBackgroundColor=none;fontColor=#EA6B66;noEdgeStyle=1;orthogonal=1;" edge="1" parent="1" source="13" target="2"><mxGeometry relative="1" as="geometry"><Array as="points"><mxPoint x="312" y="175"/><mxPoint x="400" y="175"/><mxPoint x="650" y="175"/><mxPoint x="736" y="471.875"/></Array></mxGeometry></mxCell><mxCell id="PublicSubnetRouteTable|PublicSubnetRoute" value="RouteTableId" style="edgeStyle=orthogonalEdgeStyle;rounded=1;orthogonalLoop=1;jettySize=auto;html=1;labelBackgroundColor=none;fontColor=#EA6B66;noEdgeStyle=1;orthogonal=1;" edge="1" parent="1" source="14" target="13"><mxGeometry relative="1" as="geometry"><Array as="points"><mxPoint x="62" y="147.5"/><mxPoint x="238" y="161.66666666666666"/></Array></mxGeometry></mxCell><mxCell id="IGW01|PublicSubnetRoute" value="GatewayId" style="edgeStyle=orthogonalEdgeStyle;rounded=1;orthogonalLoop=1;jettySize=auto;html=1;labelBackgroundColor=none;fontColor=#EA6B66;noEdgeStyle=1;orthogonal=1;" edge="1" parent="1" source="14" target="3"><mxGeometry relative="1" as="geometry"><Array as="points"><mxPoint x="62" y="127.5"/><mxPoint x="238" y="85"/></Array></mxGeometry></mxCell><mxCell id="PublicSubnet01|PublicSubnet01RouteTableAssociation" value="SubnetId" style="edgeStyle=orthogonalEdgeStyle;rounded=1;orthogonalLoop=1;jettySize=auto;html=1;labelBackgroundColor=none;fontColor=#EA6B66;noEdgeStyle=1;orthogonal=1;" edge="1" parent="1" source="15" target="9"><mxGeometry relative="1" as="geometry"><Array as="points"><mxPoint x="62" y="247.5"/><mxPoint x="150" y="250"/><mxPoint x="400" y="250"/><mxPoint x="488" y="240"/></Array></mxGeometry></mxCell><mxCell id="PublicSubnetRouteTable|PublicSubnet01RouteTableAssociation" value="RouteTableId" style="edgeStyle=orthogonalEdgeStyle;rounded=1;orthogonalLoop=1;jettySize=auto;html=1;labelBackgroundColor=none;fontColor=#EA6B66;noEdgeStyle=1;orthogonal=1;" edge="1" parent="1" source="15" target="13"><mxGeometry relative="1" as="geometry"><Array as="points"><mxPoint x="62" y="227.5"/><mxPoint x="236" y="175"/></Array></mxGeometry></mxCell><mxCell id="PublicSubnet02|PublicSubnet02RouteTableAssociation" value="SubnetId" style="edgeStyle=orthogonalEdgeStyle;rounded=1;orthogonalLoop=1;jettySize=auto;html=1;labelBackgroundColor=none;fontColor=#EA6B66;noEdgeStyle=1;orthogonal=1;" edge="1" parent="1" source="16" target="10"><mxGeometry relative="1" as="geometry"><Array as="points"><mxPoint x="62" y="347.5"/><mxPoint x="150" y="400"/><mxPoint x="400" y="400"/><mxPoint x="488" y="440"/></Array></mxGeometry></mxCell><mxCell id="PublicSubnetRouteTable|PublicSubnet02RouteTableAssociation" value="RouteTableId" style="edgeStyle=orthogonalEdgeStyle;rounded=1;orthogonalLoop=1;jettySize=auto;html=1;labelBackgroundColor=none;fontColor=#EA6B66;noEdgeStyle=1;orthogonal=1;" edge="1" parent="1" source="16" target="13"><mxGeometry relative="1" as="geometry"><Array as="points"><mxPoint x="62" y="327.5"/><mxPoint x="238" y="188.33333333333334"/></Array></mxGeometry></mxCell><mxCell id="VPC01|PrivateSubnet01RouteTable" value="VpcId" style="edgeStyle=orthogonalEdgeStyle;rounded=1;orthogonalLoop=1;jettySize=auto;html=1;labelBackgroundColor=none;fontColor=#EA6B66;noEdgeStyle=1;orthogonal=1;" edge="1" parent="1" source="17" target="2"><mxGeometry relative="1" as="geometry"><Array as="points"><mxPoint x="312" y="475"/><mxPoint x="400" y="525"/><mxPoint x="650" y="525"/><mxPoint x="732" y="490.625"/></Array></mxGeometry></mxCell><mxCell id="PrivateSubnet01RouteTable|PrivateSubnet01Route" value="RouteTableId" style="edgeStyle=orthogonalEdgeStyle;rounded=1;orthogonalLoop=1;jettySize=auto;html=1;labelBackgroundColor=none;fontColor=#EA6B66;noEdgeStyle=1;orthogonal=1;" edge="1" parent="1" source="18" target="17"><mxGeometry relative="1" as="geometry"><Array as="points"><mxPoint x="62" y="447.5"/><mxPoint x="238" y="465"/></Array></mxGeometry></mxCell><mxCell id="NatGateway01|PrivateSubnet01Route" value="NatGatewayId" style="edgeStyle=orthogonalEdgeStyle;rounded=1;orthogonalLoop=1;jettySize=auto;html=1;labelBackgroundColor=none;fontColor=#EA6B66;noEdgeStyle=1;orthogonal=1;" edge="1" parent="1" source="18" target="5"><mxGeometry relative="1" as="geometry"><Array as="points"><mxPoint x="62" y="427.5"/><mxPoint x="238" y="325"/></Array></mxGeometry></mxCell><mxCell id="PrivateSubnet01|PrivateSubnet01RouteTableAssociation" value="SubnetId" style="edgeStyle=orthogonalEdgeStyle;rounded=1;orthogonalLoop=1;jettySize=auto;html=1;labelBackgroundColor=none;fontColor=#EA6B66;noEdgeStyle=1;orthogonal=1;" edge="1" parent="1" source="19" target="11"><mxGeometry relative="1" as="geometry"><Array as="points"><mxPoint x="62" y="547.5"/><mxPoint x="238" y="575"/></Array></mxGeometry></mxCell><mxCell id="PrivateSubnet01RouteTable|PrivateSubnet01RouteTableAssociation" value="RouteTableId" style="edgeStyle=orthogonalEdgeStyle;rounded=1;orthogonalLoop=1;jettySize=auto;html=1;labelBackgroundColor=none;fontColor=#EA6B66;noEdgeStyle=1;orthogonal=1;" edge="1" parent="1" source="19" target="17"><mxGeometry relative="1" as="geometry"><Array as="points"><mxPoint x="62" y="527.5"/><mxPoint x="238" y="485"/></Array></mxGeometry></mxCell><mxCell id="VPC01|PrivateSubnet02RouteTable" value="VpcId" style="edgeStyle=orthogonalEdgeStyle;rounded=1;orthogonalLoop=1;jettySize=auto;html=1;labelBackgroundColor=none;fontColor=#EA6B66;noEdgeStyle=1;orthogonal=1;" edge="1" parent="1" source="20" target="2"><mxGeometry relative="1" as="geometry"><Array as="points"><mxPoint x="312" y="775"/><mxPoint x="400" y="725"/><mxPoint x="650" y="725"/><mxPoint x="736" y="503.125"/></Array></mxGeometry></mxCell><mxCell id="PrivateSubnet02RouteTable|PrivateSubnet02Route" value="RouteTableId" style="edgeStyle=orthogonalEdgeStyle;rounded=1;orthogonalLoop=1;jettySize=auto;html=1;labelBackgroundColor=none;fontColor=#EA6B66;noEdgeStyle=1;orthogonal=1;" edge="1" parent="1" source="21" target="20"><mxGeometry relative="1" as="geometry"><Array as="points"><mxPoint x="62" y="710"/><mxPoint x="238" y="765"/></Array></mxGeometry></mxCell><mxCell id="NatGateway02|PrivateSubnet02Route" value="NatGatewayId" style="edgeStyle=orthogonalEdgeStyle;rounded=1;orthogonalLoop=1;jettySize=auto;html=1;labelBackgroundColor=none;fontColor=#EA6B66;noEdgeStyle=1;orthogonal=1;" edge="1" parent="1" source="21" target="7"><mxGeometry relative="1" as="geometry"><Array as="points"><mxPoint x="62" y="690"/><mxPoint x="238" y="675"/></Array></mxGeometry></mxCell><mxCell id="PrivateSubnet02|PrivateSubnet02RouteTableAssociation" value="SubnetId" style="edgeStyle=orthogonalEdgeStyle;rounded=1;orthogonalLoop=1;jettySize=auto;html=1;labelBackgroundColor=none;fontColor=#EA6B66;noEdgeStyle=1;orthogonal=1;" edge="1" parent="1" source="22" target="12"><mxGeometry relative="1" as="geometry"><Array as="points"><mxPoint x="62" y="835"/><mxPoint x="238" y="875"/></Array></mxGeometry></mxCell><mxCell id="PrivateSubnet02RouteTable|PrivateSubnet02RouteTableAssociation" value="RouteTableId" style="edgeStyle=orthogonalEdgeStyle;rounded=1;orthogonalLoop=1;jettySize=auto;html=1;labelBackgroundColor=none;fontColor=#EA6B66;noEdgeStyle=1;orthogonal=1;" edge="1" parent="1" source="22" target="20"><mxGeometry relative="1" as="geometry"><Array as="points"><mxPoint x="62" y="815"/><mxPoint x="238" y="785"/></Array></mxGeometry></mxCell></root></mxGraphModel>
            </diagram>
          </mxfile>